<svg width="424" height="259" viewBox="0 0 424 259" fill="none" xmlns="http://www.w3.org/2000/svg">
<path d="M100.846 221H96.599L108.883 187.545H113.065L125.349 221H121.102L111.105 192.838H110.843L100.846 221ZM102.414 207.932H119.534V211.526H102.414V207.932ZM161.714 187.545H165.766V209.696C165.766 211.983 165.227 214.025 164.148 215.822C163.081 217.608 161.573 219.018 159.624 220.053C157.674 221.076 155.387 221.588 152.763 221.588C150.138 221.588 147.851 221.076 145.902 220.053C143.953 219.018 142.439 217.608 141.361 215.822C140.294 214.025 139.76 211.983 139.76 209.696V187.545H143.811V209.369C143.811 211.003 144.17 212.457 144.889 213.731C145.608 214.994 146.632 215.991 147.96 216.72C149.3 217.439 150.901 217.798 152.763 217.798C154.625 217.798 156.226 217.439 157.565 216.72C158.905 215.991 159.928 214.994 160.636 213.731C161.355 212.457 161.714 211.003 161.714 209.369V187.545ZM183.056 221V187.545H194.36C196.973 187.545 199.119 187.992 200.796 188.885C202.473 189.767 203.714 190.981 204.52 192.528C205.326 194.074 205.729 195.833 205.729 197.804C205.729 199.775 205.326 201.523 204.52 203.048C203.714 204.572 202.478 205.77 200.812 206.641C199.146 207.502 197.017 207.932 194.425 207.932H185.277V204.273H194.294C196.08 204.273 197.518 204.011 198.607 203.489C199.707 202.966 200.502 202.225 200.992 201.267C201.493 200.298 201.743 199.143 201.743 197.804C201.743 196.464 201.493 195.294 200.992 194.292C200.491 193.29 199.69 192.517 198.59 191.972C197.491 191.417 196.037 191.139 194.229 191.139H187.107V221H183.056ZM198.803 205.972L207.036 221H202.331L194.229 205.972H198.803ZM249.907 204.273C249.907 207.801 249.27 210.85 247.996 213.42C246.721 215.991 244.973 217.973 242.752 219.366C240.53 220.76 237.993 221.457 235.14 221.457C232.286 221.457 229.749 220.76 227.527 219.366C225.306 217.973 223.558 215.991 222.284 213.42C221.01 210.85 220.373 207.801 220.373 204.273C220.373 200.744 221.01 197.695 222.284 195.125C223.558 192.555 225.306 190.573 227.527 189.179C229.749 187.785 232.286 187.088 235.14 187.088C237.993 187.088 240.53 187.785 242.752 189.179C244.973 190.573 246.721 192.555 247.996 195.125C249.27 197.695 249.907 200.744 249.907 204.273ZM245.986 204.273C245.986 201.376 245.502 198.931 244.532 196.938C243.574 194.945 242.273 193.437 240.628 192.413C238.995 191.39 237.165 190.878 235.14 190.878C233.114 190.878 231.279 191.39 229.635 192.413C228.001 193.437 226.7 194.945 225.731 196.938C224.772 198.931 224.293 201.376 224.293 204.273C224.293 207.17 224.772 209.614 225.731 211.607C226.7 213.6 228.001 215.108 229.635 216.132C231.279 217.156 233.114 217.668 235.14 217.668C237.165 217.668 238.995 217.156 240.628 216.132C242.273 215.108 243.574 213.6 244.532 211.607C245.502 209.614 245.986 207.17 245.986 204.273ZM265.919 221V187.545H277.223C279.836 187.545 281.981 187.992 283.659 188.885C285.336 189.767 286.577 190.981 287.383 192.528C288.189 194.074 288.592 195.833 288.592 197.804C288.592 199.775 288.189 201.523 287.383 203.048C286.577 204.572 285.341 205.77 283.675 206.641C282.009 207.502 279.88 207.932 277.288 207.932H268.14V204.273H277.157C278.943 204.273 280.381 204.011 281.47 203.489C282.57 202.966 283.365 202.225 283.855 201.267C284.356 200.298 284.606 199.143 284.606 197.804C284.606 196.464 284.356 195.294 283.855 194.292C283.354 193.29 282.553 192.517 281.453 191.972C280.353 191.417 278.9 191.139 277.092 191.139H269.97V221H265.919ZM281.666 205.972L289.899 221H285.194L277.092 205.972H281.666ZM305.915 221H301.667L313.951 187.545H318.133L330.417 221H326.17L316.173 192.838H315.912L305.915 221ZM307.483 207.932H324.602V211.526H307.483V207.932Z" fill="white"/>
<g filter="url(#filter0_d_8_2)">
<path d="M96.5481 70L98.932 157.502C98.9692 158.871 97.8702 160 96.5013 160C95.1315 160 94.032 158.869 94.0708 157.5L96.5481 70Z" fill="url(#paint0_linear_8_2)"/>
</g>
<g filter="url(#filter1_d_8_2)">
<path d="M105.548 60L107.933 149.502C107.97 150.871 106.87 152 105.501 152C104.131 152 103.031 150.869 103.069 149.5L105.548 60Z" fill="url(#paint1_linear_8_2)"/>
</g>
<g filter="url(#filter2_d_8_2)">
<path d="M114.548 50L116.935 141.502C116.971 142.871 115.871 144 114.501 144C113.131 144 112.031 142.869 112.068 141.5L114.548 50Z" fill="url(#paint2_linear_8_2)"/>
</g>
<g filter="url(#filter3_d_8_2)">
<path d="M123.548 40L125.936 133.502C125.971 134.871 124.871 136 123.501 136C122.131 136 121.03 134.87 121.066 133.5L123.548 40Z" fill="url(#paint3_linear_8_2)"/>
</g>
<g filter="url(#filter4_d_8_2)">
<path d="M132.548 30L134.938 125.502C134.972 126.871 133.871 128 132.501 128C131.13 128 130.029 126.87 130.065 125.5L132.548 30Z" fill="url(#paint4_linear_8_2)"/>
</g>
<g filter="url(#filter5_d_8_2)">
<path d="M141.548 21L143.939 118.502C143.972 119.872 142.871 121 141.501 121C140.13 121 139.029 119.87 139.064 118.5L141.548 21Z" fill="url(#paint5_linear_8_2)"/>
</g>
<g filter="url(#filter6_d_8_2)">
<path d="M150.548 13L152.94 112.502C152.973 113.872 151.871 115 150.501 115C149.13 115 148.028 113.87 148.062 112.5L150.548 13Z" fill="url(#paint6_linear_8_2)"/>
</g>
<g filter="url(#filter7_d_8_2)">
<path d="M159.548 7L161.941 108.502C161.973 109.872 160.872 111 159.501 111C158.13 111 157.028 109.871 157.061 108.5L159.548 7Z" fill="url(#paint7_linear_8_2)"/>
</g>
<g filter="url(#filter8_d_8_2)">
<path d="M168.548 2L170.942 105.502C170.974 106.872 169.872 108 168.501 108C167.13 108 166.027 106.871 166.06 105.5L168.548 2Z" fill="url(#paint8_linear_8_2)"/>
</g>
<g filter="url(#filter9_d_8_2)">
<path d="M177.548 0L179.942 103.502C179.974 104.872 178.872 106 177.501 106C176.13 106 175.027 104.871 175.06 103.5L177.548 0Z" fill="url(#paint9_linear_8_2)"/>
</g>
<g filter="url(#filter10_d_8_2)">
<path d="M186.548 0L188.964 167.501C188.984 168.875 187.875 170 186.501 170C185.126 170 184.017 168.874 184.037 167.5L186.548 0Z" fill="url(#paint10_linear_8_2)"/>
</g>
<g filter="url(#filter11_d_8_2)">
<path d="M195.548 0L197.964 165.501C197.984 166.875 196.875 168 195.501 168C194.126 168 193.017 166.874 193.038 165.5L195.548 0Z" fill="url(#paint11_linear_8_2)"/>
</g>
<g filter="url(#filter12_d_8_2)">
<path d="M204.548 0L206.963 161.501C206.983 162.875 205.875 164 204.501 164C203.126 164 202.017 162.874 202.039 161.5L204.548 0Z" fill="url(#paint12_linear_8_2)"/>
</g>
<g filter="url(#filter13_d_8_2)">
<path d="M213.548 0L215.963 161.501C215.983 162.875 214.875 164 213.501 164C212.126 164 211.017 162.874 211.039 161.5L213.548 0Z" fill="url(#paint13_linear_8_2)"/>
</g>
<g filter="url(#filter14_d_8_2)">
<path d="M222.548 70L224.933 158.502C224.97 159.871 223.87 161 222.501 161C221.131 161 220.032 159.869 220.07 158.5L222.548 70Z" fill="url(#paint14_linear_8_2)"/>
</g>
<g filter="url(#filter15_d_8_2)">
<path d="M231.548 65L233.933 153.502C233.97 154.871 232.87 156 231.501 156C230.131 156 229.032 154.869 229.07 153.5L231.548 65Z" fill="url(#paint15_linear_8_2)"/>
</g>
<g filter="url(#filter16_d_8_2)">
<path d="M240.548 62L242.929 145.502C242.968 146.87 241.87 148 240.501 148C239.132 148 238.034 146.868 238.074 145.5L240.548 62Z" fill="url(#paint16_linear_8_2)"/>
</g>
<g filter="url(#filter17_d_8_2)">
<path d="M249.548 56L251.929 139.502C251.968 140.87 250.87 142 249.501 142C248.132 142 247.034 140.868 247.074 139.5L249.548 56Z" fill="url(#paint17_linear_8_2)"/>
</g>
<g filter="url(#filter18_d_8_2)">
<path d="M267.548 50L269.922 125.503C269.964 126.869 268.869 128 267.502 128C266.133 128 265.037 126.867 265.082 125.5L267.548 50Z" fill="url(#paint18_linear_8_2)"/>
</g>
<g filter="url(#filter19_d_8_2)">
<path d="M276.548 46L278.919 119.503C278.964 120.869 277.868 122 276.502 122C275.134 122 274.038 120.867 274.084 119.5L276.548 46Z" fill="url(#paint19_linear_8_2)"/>
</g>
<g filter="url(#filter20_d_8_2)">
<path d="M285.548 40L287.922 116.503C287.965 117.869 286.869 119 285.502 119C284.133 119 283.037 117.867 283.081 116.5L285.548 40Z" fill="url(#paint20_linear_8_2)"/>
</g>
<g filter="url(#filter21_d_8_2)">
<path d="M294.548 32L296.932 119.502C296.969 120.871 295.87 122 294.501 122C293.131 122 292.032 120.869 292.071 119.5L294.548 32Z" fill="url(#paint21_linear_8_2)"/>
</g>
<g filter="url(#filter22_d_8_2)">
<path d="M330.548 32L332.93 117.502C332.969 118.87 331.87 120 330.501 120C329.132 120 328.033 118.869 328.072 117.5L330.548 32Z" fill="url(#paint22_linear_8_2)"/>
</g>
<g filter="url(#filter23_d_8_2)">
<path d="M312.548 34L314.936 126.502C314.971 127.871 313.871 129 312.501 129C311.131 129 310.03 127.87 310.067 126.5L312.548 34Z" fill="url(#paint23_linear_8_2)"/>
</g>
<g filter="url(#filter24_d_8_2)">
<path d="M321.63 36L324.014 123.502C324.051 124.871 322.952 126 321.583 126C320.213 126 319.114 124.869 319.153 123.5L321.63 36Z" fill="url(#paint24_linear_8_2)"/>
</g>
<g filter="url(#filter25_d_8_2)">
<path d="M303.548 33L305.934 123.502C305.97 124.871 304.871 126 303.501 126C302.131 126 301.031 124.869 301.069 123.5L303.548 33Z" fill="url(#paint25_linear_8_2)"/>
</g>
<g filter="url(#filter26_d_8_2)">
<path d="M258.548 53L260.922 129.503C260.965 130.869 259.869 132 258.502 132C257.133 132 256.037 130.867 256.081 129.5L258.548 53Z" fill="url(#paint26_linear_8_2)"/>
</g>
<path d="M250 23.0934L250.951 22.8087C251.273 22.7122 251.525 22.46 251.622 22.1376L251.907 21.1868L252.175 22.1255C252.269 22.4546 252.525 22.7128 252.853 22.8098L253.813 23.0934L252.805 23.4439C252.501 23.5494 252.267 23.7943 252.175 24.1022L251.907 25L251.548 24.0392C251.446 23.7678 251.232 23.5537 250.961 23.4523L250 23.0934Z" fill="white"/>
<path d="M256.617 13.9875L257.282 13.7883C257.605 13.6918 257.857 13.4396 257.953 13.1172L258.153 12.4519L258.339 13.1051C258.433 13.4342 258.689 13.6924 259.017 13.7894L259.688 13.9875L258.97 14.2372C258.666 14.3427 258.432 14.5875 258.34 14.8954L258.153 15.5231L257.895 14.8324C257.793 14.561 257.579 14.3469 257.308 14.2456L256.617 13.9875Z" fill="white"/>
<path d="M262.652 18.6861L263.796 18.3434C264.118 18.2469 264.37 17.9947 264.467 17.6724L264.809 16.5282L265.133 17.6602C265.227 17.9894 265.483 18.2476 265.811 18.3445L266.967 18.6861L265.762 19.1049C265.459 19.2104 265.224 19.4553 265.132 19.7632L264.809 20.8439L264.382 19.7002C264.281 19.4288 264.067 19.2147 263.795 19.1133L262.652 18.6861Z" fill="white"/>
<path d="M159.689 258.452V227.906H170.01C172.406 227.906 174.365 228.339 175.886 229.204C177.417 230.059 178.551 231.218 179.287 232.679C180.023 234.141 180.39 235.772 180.39 237.571C180.39 239.371 180.023 241.007 179.287 242.478C178.561 243.95 177.437 245.123 175.916 245.998C174.395 246.863 172.446 247.296 170.069 247.296H162.672V244.014H169.95C171.591 244.014 172.908 243.731 173.903 243.164C174.897 242.598 175.618 241.832 176.065 240.867C176.523 239.893 176.751 238.794 176.751 237.571C176.751 236.348 176.523 235.254 176.065 234.29C175.618 233.325 174.892 232.57 173.888 232.023C172.883 231.466 171.551 231.188 169.89 231.188H163.388V258.452H159.689ZM202.125 258.452H198.247L209.463 227.906H213.281L224.497 258.452H220.619L211.491 232.739H211.252L202.125 258.452ZM203.556 246.52H219.187V249.801H203.556V246.52ZM241.152 227.906H245.388L253.86 242.165H254.218L262.689 227.906H266.925L255.888 245.864V258.452H252.189V245.864L241.152 227.906Z" fill="white"/>
<defs>
<filter id="filter0_d_8_2" x="90.0698" y="70" width="12.863" height="98" filterUnits="userSpaceOnUse" color-interpolation-filters="sRGB">
<feFlood flood-opacity="0" result="BackgroundImageFix"/>
<feColorMatrix in="SourceAlpha" type="matrix" values="0 0 0 0 0 0 0 0 0 0 0 0 0 0 0 0 0 0 127 0" result="hardAlpha"/>
<feOffset dy="4"/>
<feGaussianBlur stdDeviation="2"/>
<feComposite in2="hardAlpha" operator="out"/>
<feColorMatrix type="matrix" values="0 0 0 0 0 0 0 0 0 0 0 0 0 0 0 0 0 0 0.25 0"/>
<feBlend mode="normal" in2="BackgroundImageFix" result="effect1_dropShadow_8_2"/>
<feBlend mode="normal" in="SourceGraphic" in2="effect1_dropShadow_8_2" result="shape"/>
</filter>
<filter id="filter1_d_8_2" x="99.0684" y="60" width="12.866" height="100" filterUnits="userSpaceOnUse" color-interpolation-filters="sRGB">
<feFlood flood-opacity="0" result="BackgroundImageFix"/>
<feColorMatrix in="SourceAlpha" type="matrix" values="0 0 0 0 0 0 0 0 0 0 0 0 0 0 0 0 0 0 127 0" result="hardAlpha"/>
<feOffset dy="4"/>
<feGaussianBlur stdDeviation="2"/>
<feComposite in2="hardAlpha" operator="out"/>
<feColorMatrix type="matrix" values="0 0 0 0 0 0 0 0 0 0 0 0 0 0 0 0 0 0 0.25 0"/>
<feBlend mode="normal" in2="BackgroundImageFix" result="effect1_dropShadow_8_2"/>
<feBlend mode="normal" in="SourceGraphic" in2="effect1_dropShadow_8_2" result="shape"/>
</filter>
<filter id="filter2_d_8_2" x="108.067" y="50" width="12.8688" height="102" filterUnits="userSpaceOnUse" color-interpolation-filters="sRGB">
<feFlood flood-opacity="0" result="BackgroundImageFix"/>
<feColorMatrix in="SourceAlpha" type="matrix" values="0 0 0 0 0 0 0 0 0 0 0 0 0 0 0 0 0 0 127 0" result="hardAlpha"/>
<feOffset dy="4"/>
<feGaussianBlur stdDeviation="2"/>
<feComposite in2="hardAlpha" operator="out"/>
<feColorMatrix type="matrix" values="0 0 0 0 0 0 0 0 0 0 0 0 0 0 0 0 0 0 0.25 0"/>
<feBlend mode="normal" in2="BackgroundImageFix" result="effect1_dropShadow_8_2"/>
<feBlend mode="normal" in="SourceGraphic" in2="effect1_dropShadow_8_2" result="shape"/>
</filter>
<filter id="filter3_d_8_2" x="117.065" y="40" width="12.8716" height="104" filterUnits="userSpaceOnUse" color-interpolation-filters="sRGB">
<feFlood flood-opacity="0" result="BackgroundImageFix"/>
<feColorMatrix in="SourceAlpha" type="matrix" values="0 0 0 0 0 0 0 0 0 0 0 0 0 0 0 0 0 0 127 0" result="hardAlpha"/>
<feOffset dy="4"/>
<feGaussianBlur stdDeviation="2"/>
<feComposite in2="hardAlpha" operator="out"/>
<feColorMatrix type="matrix" values="0 0 0 0 0 0 0 0 0 0 0 0 0 0 0 0 0 0 0.25 0"/>
<feBlend mode="normal" in2="BackgroundImageFix" result="effect1_dropShadow_8_2"/>
<feBlend mode="normal" in="SourceGraphic" in2="effect1_dropShadow_8_2" result="shape"/>
</filter>
<filter id="filter4_d_8_2" x="126.064" y="30" width="12.874" height="106" filterUnits="userSpaceOnUse" color-interpolation-filters="sRGB">
<feFlood flood-opacity="0" result="BackgroundImageFix"/>
<feColorMatrix in="SourceAlpha" type="matrix" values="0 0 0 0 0 0 0 0 0 0 0 0 0 0 0 0 0 0 127 0" result="hardAlpha"/>
<feOffset dy="4"/>
<feGaussianBlur stdDeviation="2"/>
<feComposite in2="hardAlpha" operator="out"/>
<feColorMatrix type="matrix" values="0 0 0 0 0 0 0 0 0 0 0 0 0 0 0 0 0 0 0.25 0"/>
<feBlend mode="normal" in2="BackgroundImageFix" result="effect1_dropShadow_8_2"/>
<feBlend mode="normal" in="SourceGraphic" in2="effect1_dropShadow_8_2" result="shape"/>
</filter>
<filter id="filter5_d_8_2" x="135.063" y="21" width="12.8766" height="108" filterUnits="userSpaceOnUse" color-interpolation-filters="sRGB">
<feFlood flood-opacity="0" result="BackgroundImageFix"/>
<feColorMatrix in="SourceAlpha" type="matrix" values="0 0 0 0 0 0 0 0 0 0 0 0 0 0 0 0 0 0 127 0" result="hardAlpha"/>
<feOffset dy="4"/>
<feGaussianBlur stdDeviation="2"/>
<feComposite in2="hardAlpha" operator="out"/>
<feColorMatrix type="matrix" values="0 0 0 0 0 0 0 0 0 0 0 0 0 0 0 0 0 0 0.25 0"/>
<feBlend mode="normal" in2="BackgroundImageFix" result="effect1_dropShadow_8_2"/>
<feBlend mode="normal" in="SourceGraphic" in2="effect1_dropShadow_8_2" result="shape"/>
</filter>
<filter id="filter6_d_8_2" x="144.062" y="13" width="12.879" height="110" filterUnits="userSpaceOnUse" color-interpolation-filters="sRGB">
<feFlood flood-opacity="0" result="BackgroundImageFix"/>
<feColorMatrix in="SourceAlpha" type="matrix" values="0 0 0 0 0 0 0 0 0 0 0 0 0 0 0 0 0 0 127 0" result="hardAlpha"/>
<feOffset dy="4"/>
<feGaussianBlur stdDeviation="2"/>
<feComposite in2="hardAlpha" operator="out"/>
<feColorMatrix type="matrix" values="0 0 0 0 0 0 0 0 0 0 0 0 0 0 0 0 0 0 0.25 0"/>
<feBlend mode="normal" in2="BackgroundImageFix" result="effect1_dropShadow_8_2"/>
<feBlend mode="normal" in="SourceGraphic" in2="effect1_dropShadow_8_2" result="shape"/>
</filter>
<filter id="filter7_d_8_2" x="153.061" y="7" width="12.8812" height="112" filterUnits="userSpaceOnUse" color-interpolation-filters="sRGB">
<feFlood flood-opacity="0" result="BackgroundImageFix"/>
<feColorMatrix in="SourceAlpha" type="matrix" values="0 0 0 0 0 0 0 0 0 0 0 0 0 0 0 0 0 0 127 0" result="hardAlpha"/>
<feOffset dy="4"/>
<feGaussianBlur stdDeviation="2"/>
<feComposite in2="hardAlpha" operator="out"/>
<feColorMatrix type="matrix" values="0 0 0 0 0 0 0 0 0 0 0 0 0 0 0 0 0 0 0.25 0"/>
<feBlend mode="normal" in2="BackgroundImageFix" result="effect1_dropShadow_8_2"/>
<feBlend mode="normal" in="SourceGraphic" in2="effect1_dropShadow_8_2" result="shape"/>
</filter>
<filter id="filter8_d_8_2" x="162.059" y="2" width="12.8835" height="114" filterUnits="userSpaceOnUse" color-interpolation-filters="sRGB">
<feFlood flood-opacity="0" result="BackgroundImageFix"/>
<feColorMatrix in="SourceAlpha" type="matrix" values="0 0 0 0 0 0 0 0 0 0 0 0 0 0 0 0 0 0 127 0" result="hardAlpha"/>
<feOffset dy="4"/>
<feGaussianBlur stdDeviation="2"/>
<feComposite in2="hardAlpha" operator="out"/>
<feColorMatrix type="matrix" values="0 0 0 0 0 0 0 0 0 0 0 0 0 0 0 0 0 0 0.25 0"/>
<feBlend mode="normal" in2="BackgroundImageFix" result="effect1_dropShadow_8_2"/>
<feBlend mode="normal" in="SourceGraphic" in2="effect1_dropShadow_8_2" result="shape"/>
</filter>
<filter id="filter9_d_8_2" x="171.059" y="0" width="12.8835" height="114" filterUnits="userSpaceOnUse" color-interpolation-filters="sRGB">
<feFlood flood-opacity="0" result="BackgroundImageFix"/>
<feColorMatrix in="SourceAlpha" type="matrix" values="0 0 0 0 0 0 0 0 0 0 0 0 0 0 0 0 0 0 127 0" result="hardAlpha"/>
<feOffset dy="4"/>
<feGaussianBlur stdDeviation="2"/>
<feComposite in2="hardAlpha" operator="out"/>
<feColorMatrix type="matrix" values="0 0 0 0 0 0 0 0 0 0 0 0 0 0 0 0 0 0 0.25 0"/>
<feBlend mode="normal" in2="BackgroundImageFix" result="effect1_dropShadow_8_2"/>
<feBlend mode="normal" in="SourceGraphic" in2="effect1_dropShadow_8_2" result="shape"/>
</filter>
<filter id="filter10_d_8_2" x="180.037" y="0" width="12.927" height="178" filterUnits="userSpaceOnUse" color-interpolation-filters="sRGB">
<feFlood flood-opacity="0" result="BackgroundImageFix"/>
<feColorMatrix in="SourceAlpha" type="matrix" values="0 0 0 0 0 0 0 0 0 0 0 0 0 0 0 0 0 0 127 0" result="hardAlpha"/>
<feOffset dy="4"/>
<feGaussianBlur stdDeviation="2"/>
<feComposite in2="hardAlpha" operator="out"/>
<feColorMatrix type="matrix" values="0 0 0 0 0 0 0 0 0 0 0 0 0 0 0 0 0 0 0.25 0"/>
<feBlend mode="normal" in2="BackgroundImageFix" result="effect1_dropShadow_8_2"/>
<feBlend mode="normal" in="SourceGraphic" in2="effect1_dropShadow_8_2" result="shape"/>
</filter>
<filter id="filter11_d_8_2" x="189.038" y="0" width="12.9261" height="176" filterUnits="userSpaceOnUse" color-interpolation-filters="sRGB">
<feFlood flood-opacity="0" result="BackgroundImageFix"/>
<feColorMatrix in="SourceAlpha" type="matrix" values="0 0 0 0 0 0 0 0 0 0 0 0 0 0 0 0 0 0 127 0" result="hardAlpha"/>
<feOffset dy="4"/>
<feGaussianBlur stdDeviation="2"/>
<feComposite in2="hardAlpha" operator="out"/>
<feColorMatrix type="matrix" values="0 0 0 0 0 0 0 0 0 0 0 0 0 0 0 0 0 0 0.25 0"/>
<feBlend mode="normal" in2="BackgroundImageFix" result="effect1_dropShadow_8_2"/>
<feBlend mode="normal" in="SourceGraphic" in2="effect1_dropShadow_8_2" result="shape"/>
</filter>
<filter id="filter12_d_8_2" x="198.039" y="0" width="12.9243" height="172" filterUnits="userSpaceOnUse" color-interpolation-filters="sRGB">
<feFlood flood-opacity="0" result="BackgroundImageFix"/>
<feColorMatrix in="SourceAlpha" type="matrix" values="0 0 0 0 0 0 0 0 0 0 0 0 0 0 0 0 0 0 127 0" result="hardAlpha"/>
<feOffset dy="4"/>
<feGaussianBlur stdDeviation="2"/>
<feComposite in2="hardAlpha" operator="out"/>
<feColorMatrix type="matrix" values="0 0 0 0 0 0 0 0 0 0 0 0 0 0 0 0 0 0 0.25 0"/>
<feBlend mode="normal" in2="BackgroundImageFix" result="effect1_dropShadow_8_2"/>
<feBlend mode="normal" in="SourceGraphic" in2="effect1_dropShadow_8_2" result="shape"/>
</filter>
<filter id="filter13_d_8_2" x="207.039" y="0" width="12.9243" height="172" filterUnits="userSpaceOnUse" color-interpolation-filters="sRGB">
<feFlood flood-opacity="0" result="BackgroundImageFix"/>
<feColorMatrix in="SourceAlpha" type="matrix" values="0 0 0 0 0 0 0 0 0 0 0 0 0 0 0 0 0 0 127 0" result="hardAlpha"/>
<feOffset dy="4"/>
<feGaussianBlur stdDeviation="2"/>
<feComposite in2="hardAlpha" operator="out"/>
<feColorMatrix type="matrix" values="0 0 0 0 0 0 0 0 0 0 0 0 0 0 0 0 0 0 0.25 0"/>
<feBlend mode="normal" in2="BackgroundImageFix" result="effect1_dropShadow_8_2"/>
<feBlend mode="normal" in="SourceGraphic" in2="effect1_dropShadow_8_2" result="shape"/>
</filter>
<filter id="filter14_d_8_2" x="216.069" y="70" width="12.8645" height="99" filterUnits="userSpaceOnUse" color-interpolation-filters="sRGB">
<feFlood flood-opacity="0" result="BackgroundImageFix"/>
<feColorMatrix in="SourceAlpha" type="matrix" values="0 0 0 0 0 0 0 0 0 0 0 0 0 0 0 0 0 0 127 0" result="hardAlpha"/>
<feOffset dy="4"/>
<feGaussianBlur stdDeviation="2"/>
<feComposite in2="hardAlpha" operator="out"/>
<feColorMatrix type="matrix" values="0 0 0 0 0 0 0 0 0 0 0 0 0 0 0 0 0 0 0.25 0"/>
<feBlend mode="normal" in2="BackgroundImageFix" result="effect1_dropShadow_8_2"/>
<feBlend mode="normal" in="SourceGraphic" in2="effect1_dropShadow_8_2" result="shape"/>
</filter>
<filter id="filter15_d_8_2" x="225.069" y="65" width="12.8645" height="99" filterUnits="userSpaceOnUse" color-interpolation-filters="sRGB">
<feFlood flood-opacity="0" result="BackgroundImageFix"/>
<feColorMatrix in="SourceAlpha" type="matrix" values="0 0 0 0 0 0 0 0 0 0 0 0 0 0 0 0 0 0 127 0" result="hardAlpha"/>
<feOffset dy="4"/>
<feGaussianBlur stdDeviation="2"/>
<feComposite in2="hardAlpha" operator="out"/>
<feColorMatrix type="matrix" values="0 0 0 0 0 0 0 0 0 0 0 0 0 0 0 0 0 0 0.25 0"/>
<feBlend mode="normal" in2="BackgroundImageFix" result="effect1_dropShadow_8_2"/>
<feBlend mode="normal" in="SourceGraphic" in2="effect1_dropShadow_8_2" result="shape"/>
</filter>
<filter id="filter16_d_8_2" x="234.073" y="62" width="12.8568" height="94" filterUnits="userSpaceOnUse" color-interpolation-filters="sRGB">
<feFlood flood-opacity="0" result="BackgroundImageFix"/>
<feColorMatrix in="SourceAlpha" type="matrix" values="0 0 0 0 0 0 0 0 0 0 0 0 0 0 0 0 0 0 127 0" result="hardAlpha"/>
<feOffset dy="4"/>
<feGaussianBlur stdDeviation="2"/>
<feComposite in2="hardAlpha" operator="out"/>
<feColorMatrix type="matrix" values="0 0 0 0 0 0 0 0 0 0 0 0 0 0 0 0 0 0 0.25 0"/>
<feBlend mode="normal" in2="BackgroundImageFix" result="effect1_dropShadow_8_2"/>
<feBlend mode="normal" in="SourceGraphic" in2="effect1_dropShadow_8_2" result="shape"/>
</filter>
<filter id="filter17_d_8_2" x="243.073" y="56" width="12.8568" height="94" filterUnits="userSpaceOnUse" color-interpolation-filters="sRGB">
<feFlood flood-opacity="0" result="BackgroundImageFix"/>
<feColorMatrix in="SourceAlpha" type="matrix" values="0 0 0 0 0 0 0 0 0 0 0 0 0 0 0 0 0 0 127 0" result="hardAlpha"/>
<feOffset dy="4"/>
<feGaussianBlur stdDeviation="2"/>
<feComposite in2="hardAlpha" operator="out"/>
<feColorMatrix type="matrix" values="0 0 0 0 0 0 0 0 0 0 0 0 0 0 0 0 0 0 0.25 0"/>
<feBlend mode="normal" in2="BackgroundImageFix" result="effect1_dropShadow_8_2"/>
<feBlend mode="normal" in="SourceGraphic" in2="effect1_dropShadow_8_2" result="shape"/>
</filter>
<filter id="filter18_d_8_2" x="261.08" y="50" width="12.8424" height="86" filterUnits="userSpaceOnUse" color-interpolation-filters="sRGB">
<feFlood flood-opacity="0" result="BackgroundImageFix"/>
<feColorMatrix in="SourceAlpha" type="matrix" values="0 0 0 0 0 0 0 0 0 0 0 0 0 0 0 0 0 0 127 0" result="hardAlpha"/>
<feOffset dy="4"/>
<feGaussianBlur stdDeviation="2"/>
<feComposite in2="hardAlpha" operator="out"/>
<feColorMatrix type="matrix" values="0 0 0 0 0 0 0 0 0 0 0 0 0 0 0 0 0 0 0.25 0"/>
<feBlend mode="normal" in2="BackgroundImageFix" result="effect1_dropShadow_8_2"/>
<feBlend mode="normal" in="SourceGraphic" in2="effect1_dropShadow_8_2" result="shape"/>
</filter>
<filter id="filter19_d_8_2" x="270.082" y="46" width="12.8384" height="84" filterUnits="userSpaceOnUse" color-interpolation-filters="sRGB">
<feFlood flood-opacity="0" result="BackgroundImageFix"/>
<feColorMatrix in="SourceAlpha" type="matrix" values="0 0 0 0 0 0 0 0 0 0 0 0 0 0 0 0 0 0 127 0" result="hardAlpha"/>
<feOffset dy="4"/>
<feGaussianBlur stdDeviation="2"/>
<feComposite in2="hardAlpha" operator="out"/>
<feColorMatrix type="matrix" values="0 0 0 0 0 0 0 0 0 0 0 0 0 0 0 0 0 0 0.25 0"/>
<feBlend mode="normal" in2="BackgroundImageFix" result="effect1_dropShadow_8_2"/>
<feBlend mode="normal" in="SourceGraphic" in2="effect1_dropShadow_8_2" result="shape"/>
</filter>
<filter id="filter20_d_8_2" x="279.079" y="40" width="12.8444" height="87" filterUnits="userSpaceOnUse" color-interpolation-filters="sRGB">
<feFlood flood-opacity="0" result="BackgroundImageFix"/>
<feColorMatrix in="SourceAlpha" type="matrix" values="0 0 0 0 0 0 0 0 0 0 0 0 0 0 0 0 0 0 127 0" result="hardAlpha"/>
<feOffset dy="4"/>
<feGaussianBlur stdDeviation="2"/>
<feComposite in2="hardAlpha" operator="out"/>
<feColorMatrix type="matrix" values="0 0 0 0 0 0 0 0 0 0 0 0 0 0 0 0 0 0 0.25 0"/>
<feBlend mode="normal" in2="BackgroundImageFix" result="effect1_dropShadow_8_2"/>
<feBlend mode="normal" in="SourceGraphic" in2="effect1_dropShadow_8_2" result="shape"/>
</filter>
<filter id="filter21_d_8_2" x="288.07" y="32" width="12.863" height="98" filterUnits="userSpaceOnUse" color-interpolation-filters="sRGB">
<feFlood flood-opacity="0" result="BackgroundImageFix"/>
<feColorMatrix in="SourceAlpha" type="matrix" values="0 0 0 0 0 0 0 0 0 0 0 0 0 0 0 0 0 0 127 0" result="hardAlpha"/>
<feOffset dy="4"/>
<feGaussianBlur stdDeviation="2"/>
<feComposite in2="hardAlpha" operator="out"/>
<feColorMatrix type="matrix" values="0 0 0 0 0 0 0 0 0 0 0 0 0 0 0 0 0 0 0.25 0"/>
<feBlend mode="normal" in2="BackgroundImageFix" result="effect1_dropShadow_8_2"/>
<feBlend mode="normal" in="SourceGraphic" in2="effect1_dropShadow_8_2" result="shape"/>
</filter>
<filter id="filter22_d_8_2" x="324.071" y="32" width="12.86" height="96" filterUnits="userSpaceOnUse" color-interpolation-filters="sRGB">
<feFlood flood-opacity="0" result="BackgroundImageFix"/>
<feColorMatrix in="SourceAlpha" type="matrix" values="0 0 0 0 0 0 0 0 0 0 0 0 0 0 0 0 0 0 127 0" result="hardAlpha"/>
<feOffset dy="4"/>
<feGaussianBlur stdDeviation="2"/>
<feComposite in2="hardAlpha" operator="out"/>
<feColorMatrix type="matrix" values="0 0 0 0 0 0 0 0 0 0 0 0 0 0 0 0 0 0 0.25 0"/>
<feBlend mode="normal" in2="BackgroundImageFix" result="effect1_dropShadow_8_2"/>
<feBlend mode="normal" in="SourceGraphic" in2="effect1_dropShadow_8_2" result="shape"/>
</filter>
<filter id="filter23_d_8_2" x="306.066" y="34" width="12.8702" height="103" filterUnits="userSpaceOnUse" color-interpolation-filters="sRGB">
<feFlood flood-opacity="0" result="BackgroundImageFix"/>
<feColorMatrix in="SourceAlpha" type="matrix" values="0 0 0 0 0 0 0 0 0 0 0 0 0 0 0 0 0 0 127 0" result="hardAlpha"/>
<feOffset dy="4"/>
<feGaussianBlur stdDeviation="2"/>
<feComposite in2="hardAlpha" operator="out"/>
<feColorMatrix type="matrix" values="0 0 0 0 0 0 0 0 0 0 0 0 0 0 0 0 0 0 0.25 0"/>
<feBlend mode="normal" in2="BackgroundImageFix" result="effect1_dropShadow_8_2"/>
<feBlend mode="normal" in="SourceGraphic" in2="effect1_dropShadow_8_2" result="shape"/>
</filter>
<filter id="filter24_d_8_2" x="315.152" y="36" width="12.863" height="98" filterUnits="userSpaceOnUse" color-interpolation-filters="sRGB">
<feFlood flood-opacity="0" result="BackgroundImageFix"/>
<feColorMatrix in="SourceAlpha" type="matrix" values="0 0 0 0 0 0 0 0 0 0 0 0 0 0 0 0 0 0 127 0" result="hardAlpha"/>
<feOffset dy="4"/>
<feGaussianBlur stdDeviation="2"/>
<feComposite in2="hardAlpha" operator="out"/>
<feColorMatrix type="matrix" values="0 0 0 0 0 0 0 0 0 0 0 0 0 0 0 0 0 0 0.25 0"/>
<feBlend mode="normal" in2="BackgroundImageFix" result="effect1_dropShadow_8_2"/>
<feBlend mode="normal" in="SourceGraphic" in2="effect1_dropShadow_8_2" result="shape"/>
</filter>
<filter id="filter25_d_8_2" x="297.068" y="33" width="12.8674" height="101" filterUnits="userSpaceOnUse" color-interpolation-filters="sRGB">
<feFlood flood-opacity="0" result="BackgroundImageFix"/>
<feColorMatrix in="SourceAlpha" type="matrix" values="0 0 0 0 0 0 0 0 0 0 0 0 0 0 0 0 0 0 127 0" result="hardAlpha"/>
<feOffset dy="4"/>
<feGaussianBlur stdDeviation="2"/>
<feComposite in2="hardAlpha" operator="out"/>
<feColorMatrix type="matrix" values="0 0 0 0 0 0 0 0 0 0 0 0 0 0 0 0 0 0 0.25 0"/>
<feBlend mode="normal" in2="BackgroundImageFix" result="effect1_dropShadow_8_2"/>
<feBlend mode="normal" in="SourceGraphic" in2="effect1_dropShadow_8_2" result="shape"/>
</filter>
<filter id="filter26_d_8_2" x="252.079" y="53" width="12.8444" height="87" filterUnits="userSpaceOnUse" color-interpolation-filters="sRGB">
<feFlood flood-opacity="0" result="BackgroundImageFix"/>
<feColorMatrix in="SourceAlpha" type="matrix" values="0 0 0 0 0 0 0 0 0 0 0 0 0 0 0 0 0 0 127 0" result="hardAlpha"/>
<feOffset dy="4"/>
<feGaussianBlur stdDeviation="2"/>
<feComposite in2="hardAlpha" operator="out"/>
<feColorMatrix type="matrix" values="0 0 0 0 0 0 0 0 0 0 0 0 0 0 0 0 0 0 0.25 0"/>
<feBlend mode="normal" in2="BackgroundImageFix" result="effect1_dropShadow_8_2"/>
<feBlend mode="normal" in="SourceGraphic" in2="effect1_dropShadow_8_2" result="shape"/>
</filter>
<linearGradient id="paint0_linear_8_2" x1="96.5" y1="70" x2="96.5" y2="160" gradientUnits="userSpaceOnUse">
<stop stop-color="#999999"/>
<stop offset="1" stop-color="white"/>
</linearGradient>
<linearGradient id="paint1_linear_8_2" x1="105.5" y1="60" x2="105.5" y2="152" gradientUnits="userSpaceOnUse">
<stop stop-color="#999999"/>
<stop offset="1" stop-color="white"/>
</linearGradient>
<linearGradient id="paint2_linear_8_2" x1="114.5" y1="50" x2="114.5" y2="144" gradientUnits="userSpaceOnUse">
<stop stop-color="#999999"/>
<stop offset="1" stop-color="white"/>
</linearGradient>
<linearGradient id="paint3_linear_8_2" x1="123.5" y1="40" x2="123.5" y2="136" gradientUnits="userSpaceOnUse">
<stop stop-color="#999999"/>
<stop offset="1" stop-color="white"/>
</linearGradient>
<linearGradient id="paint4_linear_8_2" x1="132.5" y1="30" x2="132.5" y2="128" gradientUnits="userSpaceOnUse">
<stop stop-color="#999999"/>
<stop offset="1" stop-color="white"/>
</linearGradient>
<linearGradient id="paint5_linear_8_2" x1="141.5" y1="21" x2="141.5" y2="121" gradientUnits="userSpaceOnUse">
<stop stop-color="#999999"/>
<stop offset="1" stop-color="white"/>
</linearGradient>
<linearGradient id="paint6_linear_8_2" x1="150.5" y1="13" x2="150.5" y2="115" gradientUnits="userSpaceOnUse">
<stop stop-color="#999999"/>
<stop offset="1" stop-color="white"/>
</linearGradient>
<linearGradient id="paint7_linear_8_2" x1="159.5" y1="7" x2="159.5" y2="111" gradientUnits="userSpaceOnUse">
<stop stop-color="#999999"/>
<stop offset="1" stop-color="white"/>
</linearGradient>
<linearGradient id="paint8_linear_8_2" x1="168.5" y1="2" x2="168.5" y2="108" gradientUnits="userSpaceOnUse">
<stop stop-color="#999999"/>
<stop offset="1" stop-color="white"/>
</linearGradient>
<linearGradient id="paint9_linear_8_2" x1="177.5" y1="0" x2="177.5" y2="106" gradientUnits="userSpaceOnUse">
<stop stop-color="#999999"/>
<stop offset="1" stop-color="white"/>
</linearGradient>
<linearGradient id="paint10_linear_8_2" x1="186.5" y1="0" x2="186.5" y2="170" gradientUnits="userSpaceOnUse">
<stop stop-color="#999999"/>
<stop offset="1" stop-color="white"/>
</linearGradient>
<linearGradient id="paint11_linear_8_2" x1="195.5" y1="0" x2="195.5" y2="168" gradientUnits="userSpaceOnUse">
<stop stop-color="#999999"/>
<stop offset="1" stop-color="white"/>
</linearGradient>
<linearGradient id="paint12_linear_8_2" x1="204.5" y1="0" x2="204.5" y2="164" gradientUnits="userSpaceOnUse">
<stop stop-color="#999999"/>
<stop offset="1" stop-color="white"/>
</linearGradient>
<linearGradient id="paint13_linear_8_2" x1="213.5" y1="0" x2="213.5" y2="164" gradientUnits="userSpaceOnUse">
<stop stop-color="#999999"/>
<stop offset="1" stop-color="white"/>
</linearGradient>
<linearGradient id="paint14_linear_8_2" x1="222.5" y1="70" x2="222.5" y2="161" gradientUnits="userSpaceOnUse">
<stop stop-color="#999999"/>
<stop offset="1" stop-color="white"/>
</linearGradient>
<linearGradient id="paint15_linear_8_2" x1="231.5" y1="65" x2="231.5" y2="156" gradientUnits="userSpaceOnUse">
<stop stop-color="#999999"/>
<stop offset="1" stop-color="white"/>
</linearGradient>
<linearGradient id="paint16_linear_8_2" x1="240.5" y1="62" x2="240.5" y2="148" gradientUnits="userSpaceOnUse">
<stop stop-color="#999999"/>
<stop offset="1" stop-color="white"/>
</linearGradient>
<linearGradient id="paint17_linear_8_2" x1="249.5" y1="56" x2="249.5" y2="142" gradientUnits="userSpaceOnUse">
<stop stop-color="#999999"/>
<stop offset="1" stop-color="white"/>
</linearGradient>
<linearGradient id="paint18_linear_8_2" x1="267.5" y1="50" x2="267.5" y2="128" gradientUnits="userSpaceOnUse">
<stop stop-color="#999999"/>
<stop offset="1" stop-color="white"/>
</linearGradient>
<linearGradient id="paint19_linear_8_2" x1="276.5" y1="46" x2="276.5" y2="122" gradientUnits="userSpaceOnUse">
<stop stop-color="#999999"/>
<stop offset="1" stop-color="white"/>
</linearGradient>
<linearGradient id="paint20_linear_8_2" x1="285.5" y1="40" x2="285.5" y2="119" gradientUnits="userSpaceOnUse">
<stop stop-color="#999999"/>
<stop offset="1" stop-color="white"/>
</linearGradient>
<linearGradient id="paint21_linear_8_2" x1="294.5" y1="32" x2="294.5" y2="122" gradientUnits="userSpaceOnUse">
<stop stop-color="#999999"/>
<stop offset="1" stop-color="white"/>
</linearGradient>
<linearGradient id="paint22_linear_8_2" x1="330.5" y1="32" x2="330.5" y2="120" gradientUnits="userSpaceOnUse">
<stop stop-color="#999999"/>
<stop offset="1" stop-color="white"/>
</linearGradient>
<linearGradient id="paint23_linear_8_2" x1="312.5" y1="34" x2="312.5" y2="129" gradientUnits="userSpaceOnUse">
<stop stop-color="#999999"/>
<stop offset="1" stop-color="white"/>
</linearGradient>
<linearGradient id="paint24_linear_8_2" x1="321.582" y1="36" x2="321.582" y2="126" gradientUnits="userSpaceOnUse">
<stop stop-color="#999999"/>
<stop offset="1" stop-color="white"/>
</linearGradient>
<linearGradient id="paint25_linear_8_2" x1="303.5" y1="33" x2="303.5" y2="126" gradientUnits="userSpaceOnUse">
<stop stop-color="#999999"/>
<stop offset="1" stop-color="white"/>
</linearGradient>
<linearGradient id="paint26_linear_8_2" x1="258.5" y1="53" x2="258.5" y2="132" gradientUnits="userSpaceOnUse">
<stop stop-color="#999999"/>
<stop offset="1" stop-color="white"/>
</linearGradient>
</defs>
</svg>
